<svg width="16" height="17" viewBox="0 0 16 17" fill="none" xmlns="http://www.w3.org/2000/svg">
<g clip-path="url(#clip0_12750_23491)">
<path d="M6.00004 8.29557C7.28671 8.29557 8.33337 7.24891 8.33337 5.96224C8.33337 4.67557 7.28671 3.62891 6.00004 3.62891C4.71337 3.62891 3.66671 4.67557 3.66671 5.96224C3.66671 7.24891 4.71337 8.29557 6.00004 8.29557ZM6.00004 4.96224C6.55337 4.96224 7.00004 5.40891 7.00004 5.96224C7.00004 6.51557 6.55337 6.96224 6.00004 6.96224C5.44671 6.96224 5.00004 6.51557 5.00004 5.96224C5.00004 5.40891 5.44671 4.96224 6.00004 4.96224ZM6.03337 11.6289H3.18004C3.84004 11.2956 4.98004 10.9622 6.00004 10.9622C6.07337 10.9622 6.15337 10.9689 6.22671 10.9689C6.45337 10.4822 6.84671 10.0822 7.32004 9.76224C6.83337 9.67557 6.37337 9.62891 6.00004 9.62891C4.44004 9.62891 1.33337 10.4089 1.33337 11.9622V12.9622H6.00004V11.9622C6.00004 11.8489 6.01337 11.7356 6.03337 11.6289ZM11 9.96224C9.77337 9.96224 7.33337 10.6356 7.33337 11.9622V12.9622H14.6667V11.9622C14.6667 10.6356 12.2267 9.96224 11 9.96224ZM11.8067 8.74891C12.3134 8.46224 12.6667 7.92224 12.6667 7.29557C12.6667 6.37557 11.92 5.62891 11 5.62891C10.08 5.62891 9.33337 6.37557 9.33337 7.29557C9.33337 7.92224 9.68671 8.46224 10.1934 8.74891C10.4334 8.88224 10.7067 8.96224 11 8.96224C11.2934 8.96224 11.5667 8.88224 11.8067 8.74891Z" fill="#323232"/>
</g>
<defs>
<clipPath id="clip0_12750_23491">
<rect width="16" height="16" fill="white" transform="translate(0 0.294922)"/>
</clipPath>
</defs>
</svg>
